<svg xmlns="http://www.w3.org/2000/svg" xmlns:xlink="http://www.w3.org/1999/xlink" width="401" zoomAndPan="magnify" viewBox="0 0 300.75 314.999992" height="420" preserveAspectRatio="xMidYMid meet" version="1.0"><defs><clipPath id="e27d98d2bd"><path d="M 58 151 L 199 151 L 199 314.121094 L 58 314.121094 Z M 58 151 " clip-rule="nonzero"/></clipPath><clipPath id="ef853ca5cf"><path d="M 69 0.128906 L 238 0.128906 L 238 249 L 69 249 Z M 69 0.128906 " clip-rule="nonzero"/></clipPath><clipPath id="769f8ca490"><path d="M 92.222656 109.15625 L 207.84375 109.15625 L 207.84375 205.257812 L 92.222656 205.257812 Z M 92.222656 109.15625 " clip-rule="nonzero"/></clipPath><clipPath id="3f5ad31aa9"><path d="M 104.960938 109.15625 L 195.054688 109.15625 C 202.089844 109.15625 207.796875 114.859375 207.796875 121.898438 L 207.796875 192.519531 C 207.796875 199.554688 202.089844 205.257812 195.054688 205.257812 L 104.960938 205.257812 C 97.925781 205.257812 92.222656 199.554688 92.222656 192.519531 L 92.222656 121.898438 C 92.222656 114.859375 97.925781 109.15625 104.960938 109.15625 Z M 104.960938 109.15625 " clip-rule="nonzero"/></clipPath><clipPath id="08ce24d375"><path d="M 0.222656 0.15625 L 115.84375 0.15625 L 115.84375 96.257812 L 0.222656 96.257812 Z M 0.222656 0.15625 " clip-rule="nonzero"/></clipPath><clipPath id="f796e5e815"><path d="M 12.960938 0.15625 L 103.054688 0.15625 C 110.089844 0.15625 115.796875 5.859375 115.796875 12.898438 L 115.796875 83.519531 C 115.796875 90.554688 110.089844 96.257812 103.054688 96.257812 L 12.960938 96.257812 C 5.925781 96.257812 0.222656 90.554688 0.222656 83.519531 L 0.222656 12.898438 C 0.222656 5.859375 5.925781 0.15625 12.960938 0.15625 Z M 12.960938 0.15625 " clip-rule="nonzero"/></clipPath><clipPath id="3a99049f4d"><rect x="0" width="116" y="0" height="97"/></clipPath><clipPath id="3468af09bc"><path d="M 102 183 L 156 183 L 156 215.035156 L 102 215.035156 Z M 102 183 " clip-rule="nonzero"/></clipPath></defs><g clip-path="url(#e27d98d2bd)"><path fill="#000000" d="M 148.335938 314.121094 C 123.730469 314.121094 100.878906 297.289062 83.992188 266.832031 C 67.730469 237.445312 58.753906 198.507812 58.753906 157.125 C 58.753906 153.859375 61.390625 151.160156 64.71875 151.160156 C 68.046875 151.160156 70.683594 153.796875 70.683594 157.125 C 70.683594 196.5 79.09375 233.363281 94.414062 261.054688 C 109.101562 287.554688 128.25 302.1875 148.335938 302.1875 C 162.273438 302.1875 176.023438 294.964844 188.136719 281.339844 C 190.335938 278.890625 194.101562 278.640625 196.550781 280.835938 C 199 283.035156 199.25 286.804688 197.050781 289.25 C 182.613281 305.515625 165.789062 314.121094 148.335938 314.121094 Z M 148.335938 314.121094 " fill-opacity="1" fill-rule="nonzero"/></g><g clip-path="url(#ef853ca5cf)"><path fill="#000000" d="M 217.453125 248.183594 C 216.765625 248.183594 216.011719 248.054688 215.320312 247.804688 C 212.242188 246.613281 210.675781 243.222656 211.867188 240.144531 C 221.09375 215.714844 225.992188 187.015625 225.992188 157.1875 C 225.992188 117.8125 217.578125 80.953125 202.261719 53.257812 C 187.574219 26.695312 168.425781 12.0625 148.335938 12.0625 C 121.15625 12.0625 95.542969 39.503906 81.417969 83.777344 C 80.414062 86.917969 77.085938 88.675781 73.945312 87.671875 C 70.808594 86.667969 69.050781 83.339844 70.054688 80.199219 C 77.523438 56.710938 88.386719 36.929688 101.441406 22.988281 C 115.441406 8.042969 131.640625 0.128906 148.335938 0.128906 C 172.945312 0.128906 195.796875 16.960938 212.683594 47.417969 C 228.941406 76.808594 237.917969 115.742188 237.917969 157.125 C 237.917969 188.398438 232.773438 218.542969 222.980469 244.289062 C 222.164062 246.675781 219.902344 248.183594 217.453125 248.183594 Z M 217.453125 248.183594 " fill-opacity="1" fill-rule="nonzero"/></g><path fill="#000000" d="M 15.3125 137.65625 C 12.800781 137.65625 10.480469 136.089844 9.664062 133.574219 C 2.632812 112.789062 3.574219 93.761719 12.363281 78.566406 C 24.667969 57.214844 50.65625 45.847656 85.496094 46.476562 C 119.082031 47.039062 157.3125 58.785156 193.097656 79.445312 C 196.863281 81.640625 200.628906 83.902344 204.269531 86.226562 C 207.035156 87.984375 207.851562 91.691406 206.09375 94.453125 C 204.335938 97.214844 200.628906 98.03125 197.867188 96.273438 C 194.351562 94.011719 190.773438 91.816406 187.132812 89.742188 C 153.046875 70.085938 116.886719 58.910156 85.308594 58.34375 C 54.988281 57.84375 32.765625 67.074219 22.722656 84.46875 C 15.691406 96.652344 15.0625 112.289062 20.964844 129.683594 C 22.03125 132.824219 20.335938 136.152344 17.195312 137.21875 C 16.632812 137.59375 16.003906 137.65625 15.3125 137.65625 Z M 15.3125 137.65625 " fill-opacity="1" fill-rule="nonzero"/><path fill="#000000" d="M 213.75 267.773438 C 212.871094 267.773438 211.992188 267.773438 211.113281 267.773438 C 177.527344 267.210938 139.296875 255.464844 103.515625 234.804688 C 77.523438 219.796875 54.738281 201.082031 37.535156 180.738281 C 35.402344 178.226562 35.714844 174.457031 38.226562 172.324219 C 40.738281 170.1875 44.503906 170.5 46.640625 173.011719 C 62.960938 192.355469 84.683594 210.125 109.480469 224.445312 C 143.566406 244.101562 179.726562 255.277344 211.300781 255.84375 C 241.625 256.410156 263.847656 247.113281 273.890625 229.71875 C 286.761719 207.363281 277.910156 174.394531 250.097656 141.425781 C 247.964844 138.914062 248.277344 135.144531 250.789062 133.011719 C 253.300781 130.875 257.066406 131.191406 259.199219 133.703125 C 290.339844 170.625 299.691406 208.746094 284.1875 235.621094 C 272.257812 256.410156 247.273438 267.773438 213.75 267.773438 Z M 213.75 267.773438 " fill-opacity="1" fill-rule="nonzero"/><path fill="#000000" d="M 181.042969 240.644531 C 178.910156 240.644531 176.839844 239.515625 175.769531 237.445312 C 174.265625 234.554688 175.332031 230.914062 178.28125 229.40625 C 181.296875 227.835938 184.308594 226.140625 187.257812 224.445312 C 221.347656 204.789062 249.03125 178.980469 265.351562 151.914062 C 280.984375 125.914062 284.058594 101.988281 274.015625 84.59375 C 261.019531 62.113281 227.8125 53.382812 185.0625 61.171875 C 181.796875 61.734375 178.722656 59.601562 178.15625 56.398438 C 177.589844 53.132812 179.726562 50.054688 182.925781 49.488281 C 230.761719 40.699219 268.679688 51.625 284.25 78.628906 C 296.554688 99.980469 293.414062 128.175781 275.460938 158.066406 C 258.132812 186.890625 228.941406 214.144531 193.097656 234.804688 C 190.019531 236.566406 186.882812 238.324219 183.742188 239.957031 C 182.925781 240.394531 181.984375 240.644531 181.042969 240.644531 Z M 181.042969 240.644531 " fill-opacity="1" fill-rule="nonzero"/><path fill="#000000" d="M 82.925781 267.773438 C 72.691406 267.773438 63.085938 266.707031 54.359375 264.574219 C 35.027344 259.800781 20.523438 249.816406 12.363281 235.683594 C 0.0585938 214.335938 3.199219 186.136719 21.152344 156.246094 C 38.476562 127.421875 67.667969 100.167969 103.515625 79.507812 C 107.40625 77.246094 111.425781 75.046875 115.378906 73.039062 C 118.332031 71.53125 121.910156 72.664062 123.414062 75.613281 C 124.921875 78.566406 123.792969 82.144531 120.839844 83.652344 C 117.011719 85.597656 113.183594 87.671875 109.480469 89.867188 C 75.390625 109.523438 47.707031 135.335938 31.382812 162.398438 C 15.753906 188.398438 12.675781 212.324219 22.722656 229.71875 C 35.96875 252.640625 71.5 261.371094 115.378906 252.453125 C 118.582031 251.824219 121.71875 253.898438 122.410156 257.097656 C 123.039062 260.300781 120.964844 263.441406 117.765625 264.132812 C 105.648438 266.519531 93.910156 267.773438 82.925781 267.773438 Z M 82.925781 267.773438 " fill-opacity="1" fill-rule="nonzero"/><path fill="#000000" d="M 107.722656 198.699219 C 107.09375 198.699219 106.464844 198.570312 105.835938 198.382812 C 102.699219 197.316406 101.003906 193.988281 102.070312 190.847656 L 124.355469 124.09375 C 125.171875 121.644531 127.433594 120.011719 130.007812 120.011719 C 132.582031 120.011719 134.839844 121.644531 135.65625 124.09375 L 157.941406 190.847656 C 159.007812 193.988281 157.3125 197.316406 154.175781 198.382812 C 151.035156 199.449219 147.710938 197.753906 146.640625 194.617188 L 130.007812 144.816406 L 113.371094 194.617188 C 112.492188 197.128906 110.167969 198.699219 107.722656 198.699219 Z M 107.722656 198.699219 " fill-opacity="1" fill-rule="nonzero"/><path fill="#000000" d="M 142.875 185.007812 L 112.304688 185.007812 C 109.039062 185.007812 106.339844 182.371094 106.339844 179.042969 C 106.339844 175.777344 108.976562 173.074219 112.304688 173.074219 L 142.875 173.074219 C 146.140625 173.074219 148.839844 175.714844 148.839844 179.042969 C 148.839844 182.371094 146.203125 185.007812 142.875 185.007812 Z M 142.875 185.007812 " fill-opacity="1" fill-rule="nonzero"/><path fill="#000000" d="M 188.953125 198.699219 C 185.691406 198.699219 182.988281 196.058594 182.988281 192.730469 L 182.988281 121.519531 C 182.988281 118.253906 185.625 115.554688 188.953125 115.554688 C 192.28125 115.554688 194.917969 118.191406 194.917969 121.519531 L 194.917969 192.792969 C 194.917969 196.058594 192.28125 198.699219 188.953125 198.699219 Z M 188.953125 198.699219 " fill-opacity="1" fill-rule="nonzero"/><g clip-path="url(#769f8ca490)"><g clip-path="url(#3f5ad31aa9)"><g transform="matrix(1, 0, 0, 1, 92, 109)"><g clip-path="url(#3a99049f4d)"><g clip-path="url(#08ce24d375)"><g clip-path="url(#f796e5e815)"><path fill="#ffffff" d="M 0.222656 0.15625 L 115.84375 0.15625 L 115.84375 96.257812 L 0.222656 96.257812 Z M 0.222656 0.15625 " fill-opacity="1" fill-rule="nonzero"/></g></g></g></g></g></g><path fill="#1b1919" d="M 202.453125 195.5625 C 197.730469 200.269531 191.542969 202.625 185.355469 202.625 C 179.171875 202.625 172.980469 200.269531 168.261719 195.5625 L 166.746094 194.050781 C 168.554688 188.285156 168.800781 182.097656 167.40625 176.113281 C 165.492188 167.910156 160.625 160.730469 153.695312 155.894531 L 175.269531 134.382812 L 202.449219 161.480469 C 211.890625 170.894531 211.890625 186.152344 202.453125 195.5625 " fill-opacity="1" fill-rule="nonzero"/><path fill="#1b1919" d="M 145.359375 104.5625 C 135.917969 95.152344 120.613281 95.152344 111.171875 104.5625 C 101.730469 113.976562 101.730469 129.234375 111.171875 138.648438 L 123.84375 151.28125 C 125.175781 150.871094 126.53125 150.535156 127.910156 150.285156 L 113.703125 136.121094 C 109.8125 132.246094 107.671875 127.089844 107.671875 121.605469 C 107.671875 116.121094 109.8125 110.964844 113.703125 107.085938 C 117.59375 103.210938 122.765625 101.074219 128.265625 101.074219 C 133.765625 101.074219 138.9375 103.210938 142.828125 107.089844 L 167.476562 131.660156 L 146.875 152.195312 C 148.046875 152.671875 149.195312 153.210938 150.316406 153.8125 L 172.539062 131.660156 L 145.359375 104.5625 " fill-opacity="1" fill-rule="nonzero"/><path fill="#1b1919" d="M 115.496094 110.667969 C 115.429688 110.734375 115.367188 110.804688 115.3125 110.882812 C 112.753906 114.390625 111.523438 118.714844 111.84375 123.058594 C 112.171875 127.453125 114.074219 131.589844 117.199219 134.707031 L 120.679688 138.171875 C 121.375 138.871094 122.511719 138.871094 123.210938 138.171875 C 123.910156 137.476562 123.910156 136.34375 123.210938 135.648438 L 119.734375 132.183594 C 114.523438 126.988281 113.882812 118.914062 118.207031 112.984375 C 118.789062 112.1875 118.613281 111.070312 117.8125 110.488281 C 117.089844 109.964844 116.105469 110.058594 115.496094 110.667969 " fill-opacity="1" fill-rule="nonzero"/><path fill="#1b1919" d="M 137.039062 149.851562 C 136.066406 149.765625 135.082031 149.726562 134.09375 149.726562 C 133.496094 149.726562 132.90625 149.742188 132.3125 149.773438 L 127.339844 144.8125 C 126.640625 144.117188 126.640625 142.984375 127.339844 142.289062 C 128.039062 141.59375 129.171875 141.59375 129.871094 142.289062 L 136.550781 148.953125 C 136.808594 149.207031 136.972656 149.519531 137.039062 149.851562 " fill-opacity="1" fill-rule="nonzero"/><g clip-path="url(#3468af09bc)"><path fill="#1b1919" d="M 155.773438 206.277344 C 149.84375 211.996094 141.992188 215.015625 134.035156 215.015625 C 127.859375 215.015625 121.621094 213.195312 116.171875 209.402344 C 107.46875 203.34375 102.8125 193.664062 102.8125 183.832031 C 102.875 200.996094 116.855469 214.894531 134.085938 214.894531 C 142.480469 214.894531 150.105469 211.597656 155.722656 206.226562 L 155.773438 206.277344 " fill-opacity="1" fill-rule="nonzero"/></g><path fill="#1b1919" d="M 163.714844 193.714844 C 163.148438 195.414062 162.429688 197.078125 161.546875 198.695312 L 161.53125 198.679688 C 162.394531 197.101562 163.128906 195.445312 163.714844 193.714844 " fill-opacity="1" fill-rule="nonzero"/><path fill="#1b1919" d="M 111.507812 162.148438 L 155.722656 206.226562 C 150.105469 211.597656 142.480469 214.894531 134.085938 214.894531 C 116.855469 214.894531 102.875 200.996094 102.8125 183.832031 L 102.8125 183.71875 C 102.8125 183.597656 102.8125 183.480469 102.816406 183.359375 C 102.910156 175.132812 106.199219 167.667969 111.507812 162.148438 " fill-opacity="1" fill-rule="nonzero"/><path fill="#1b1919" d="M 165.359375 183.71875 C 165.359375 187.082031 164.824219 190.320312 163.835938 193.351562 C 163.796875 193.476562 163.757812 193.59375 163.714844 193.714844 C 163.128906 195.445312 162.394531 197.101562 161.53125 198.679688 C 160.566406 200.433594 159.433594 202.085938 158.160156 203.613281 L 114.128906 159.714844 C 119.542969 155.234375 126.5 152.539062 134.085938 152.539062 C 151.355469 152.539062 165.359375 166.5 165.359375 183.71875 " fill-opacity="1" fill-rule="nonzero"/></svg>